<?xml version="1.0" encoding="UTF-8"?>
<svg id="Layer_1" xmlns="http://www.w3.org/2000/svg" version="1.1" viewBox="0 0 612 624.48">
  <!-- Generator: Adobe Illustrator 30.3.0, SVG Export Plug-In . SVG Version: 2.1.3 Build 182)  -->
  <defs>
    <style>
      .st0 {
        fill: #ff4001;
      }

      .st1 {
        fill: #ff4002;
      }

      .st2 {
        fill: #ff4305;
      }

      .st3 {
        fill: #ff4102;
      }

      .st4 {
        fill: #ff4103;
      }
    </style>
  </defs>
  <path class="st0" d="M237.68,272.68c-7.6-5.59-14.32-12.29-20.39-19.77l-9.21-11.91-5.18-8.24c-3.37-5.37-5.59-11.16-7.86-17.09-3.72-9.71-4.7-19.59-5.16-29.97-.43-9.67.4-19.24,2.85-28.66,1.18-4.55,3.54-8.73,6.12-12.53,3.02-4.46,5.77-8.8,9.19-12.92,3.38-4.08,7.63-7.03,11.71-10.32,1.04-.84,1.73-1.84,1.22-3.01l-9.3,4.1c-6.47,2.85-12.92,5.81-18.74,10.03-13.73,9.95-23.38,24.45-28.54,40.46-3.72,11.55-4.06,23.01-1.03,34.72,5.46,21.09,17.48,39.12,33.78,53.47,7.54,6.64,15.24,12.46,23.47,18.73-13.37-1.1-25.68-4.88-37.23-10.68-5.74-2.88-11.06-5.58-16.39-9.08-4.56-3-9.15-5.65-12.94-9.63-3.49-3.66-8.9-11.69-9.35-10.62l-.63,1.47c2.2,7.97,5.14,15.43,8.65,22.97,2.04,5.85,4.74,10.95,7.46,16.56,5.36,11.07,11.18,21.63,19.58,30.8,9.76,10.66,20.9,19.63,33.28,27.08,8.33,5.01,17.31,7.62,26.68,9.8,5.98,1.39,14.27,3.05,17.72-.37,1.08-1.91-1.38-2.58-2.58-3.17-10.1-4.95-19.38-10.82-27.82-18.28l-12.72-12.69-5.48-7.02c-3.74-4.79-7.07-9.5-9.38-15.72l13.96,8.28,14.08,9.55c9.28,7.08,16.82,15.99,24.16,25.11l6.33,9.09c2.41,3.46,4.77,7.36,6.24,11.4,3.06,8.42,4.42,17.2,4.76,26.17.32,8.31-1.25,16-2.84,24.06-.55,2.78,5.64,1.06,11.25-4.95,4.36-4.67,7.88-9.73,11.04-15.35,10.94-19.47,17.95-39.68,20.9-61.88l1.13-17.16c.54-8.17-.35-15.74-.78-24.56,9.94,18.88,13.3,39.07,10.01,60.04-1.31,8.32-4,16.1-7.48,23.67-2.71,5.9-6.66,10.71-10.91,15.52-.36.41-.68,1.21-.57,1.61.61,2.35,10.94-1.28,15.96-2.94,4.28-1.42,7.8-3.43,11.61-5.73,7.01-4.22,12.98-9.1,18.74-14.87l6.96-6.98c7.82-8.81,13.79-18.62,17.67-29.77l3.59-12.27c2.27-10.63,3.66-21.05,3.53-32.04l-.59-50.78.22-17.35c.25-19.42,20.18-36.93,38.71-38.72,14.98-1.45,29.74,8.54,41.16,17.84.6.49,2.66,1.07,2.93.34,1.08-2.92,1.94-6.07,1.29-9.01l-2.23-10.16c-1.24-5.65-12.58-13.51-14.3-18.13-2.05-5.51-4.47-9.91-9.27-13.53-7.72-5.83-16.31-9.39-25.56-12.31-14.04-4.43-29.21-14.65-31.48-29.45l-2.12-13.81c-.1-.64-.9-1.66-1.48-1.74-2.8-.39-6.12,7.77-7.62,12.48-2.45,8.39-2.56,16.92-1.03,25.29l-.66.33c-2.68-3.83-5.15-8.83-6.84-13.78-.24-.69-.85-1.38-1.78-1.93-1.56,10.33.09,25.61,6,33.65l5.55,7.55c-5.09,1.79-10.31-.38-14.75-2.65-5.76-2.95-11.07-6.09-15.43-11.04-3.16-3.59-3.32-7.54-5.2-7.36-.45.04-.82,1.25-.76,1.73l.85,7.61c1.04,3.82,2.91,7.71,5.26,10.88l6.08,6.37,6.97,4.92,3.99,2.48c-6.44,1.14-11.41,3.07-16.57,6.58-4.32,2.94-8.27,11.99-6.08,12.83,2.28.87,1.68-6.28,11.17-9.35,5-1.62,10.38-2.55,15.81-1.74-11.5,12.32-37,20.17-51.84,17.82l-13.46-2.13,4.12,12.06c4.01,9.02,9.01,16.91,15.99,23.83l14.71,14.57c6.36,6.29,12,13.03,15.68,21.24,3.4,7.59,5.62,15.47,6.93,23.67.51,3.17-.03,6.36-.46,9.83-4.57-9.83-11.18-17.83-19.47-24.83-6.92-5.85-13.82-11.22-19.77-18.1-6.65-7.7-12.56-15.56-18.19-24.01-4.7-7.05-8.37-14.18-11.67-21.97-3.23-7.65-5.3-15.66-4.77-24.04.89-14.05,5.41-29.54,14.56-40.16l10.45-12.13,7.96-7.9c4.02-3.99,8.51-7.12,13.23-10.29.89-.6,1.61-1.39,1.99-2.67-17-2.05-30.62,2.73-44.6,11.95-10.36,6.83-19.22,15.45-25.54,26.17-8.12,13.76-8.16,27.67-6.43,43.24.41,3.68,1.43,7.06,2.36,10.6,1.74,6.65,3.35,13.09,6.04,19.41l6.15,14.44,4.4,9.65c5.1,11.19,11.06,21.7,14.95,33.88l-9.29-12.25-10.6-12.48c-6.94-8.17-12.3-16.96-16.99-26.68-9.31-19.27-14.16-44.34-11.78-65.52.84-7.52,4.28-14.48,7.56-21.05,1.62-3.24,3.69-5.88,5.93-8.54,10.28-12.16,20.53-15.84,35.04-21.93-2.15-1.12-4.06-.35-6.08.01-7.25,1.3-14.34,2.31-21.35,4.66-12.97,4.35-23.88,10.95-33.61,20.51-4.2,4.13-7.67,8.65-10.94,13.54-5.78,8.65-9.23,18.21-10.23,28.63-.5,5.25-.77,10.56-.12,15.82,1.08,8.82,3.02,17.25,5.21,25.8l2.59,7.5c6.84,19.79,16.51,38.02,28.78,54.63M238.38,273.21l-.49-.47.58-.62.24.22,1.5,2.01-1.83-1.14ZM309.37,280.72v.31s-.02-.31-.02-.31v-.64s.02.31.02.31v.32ZM419.65,146.17l-4.05-5.29c6.03,1.69,11.1,5.05,14.58,10.89-4.04.3-7.99-2.29-10.52-5.59Z"/>
  <path class="st1" d="M144.15,348.49l-.46-.81c-.12-.21-.8.49-.66.69l.67.94c.8,1.12,1.92,3.43,2.97,4.8l5.82,7.63,7.18,7.73c7.54,8.12,16.74,13.74,27.23,17.39,6.8,2.36,13.31,4.4,20.5,5.4,5.85.81,12.42-.69,12.32.38l-.17,1.78c-4.01,2.58-7.87,4.34-12.33,5.99l-14.43,3.62-7.43,1.66c-9.25,2.06-18.42.71-27.71-.07-4.56-.38-8.66-.76-13.1-1.8-15.2-3.56-32.83-10.52-43.72-21.62l-4.77-4.87c-5.87-7.91-9.86-16.93-11.44-26.78l-.66-8.54c-.03-.43.44-1.37.78-1.52,1.32-.62,3.63,9.57,11.44,16.18,2.38,2.01,5.69,2.8,8.64,3.79,4.65,1.56,9.62,1.59,14.03-.57-6.16-4.21-11.61-8.43-15.3-14.41l-5.87-9.51c-3.75-6.08-6.21-12.16-8.54-18.88-3.78-10.91-4.61-22.09-.06-33.13,1.93.74,2.01,2.18,2.76,3.65,2.34,4.61,5.05,9.12,8.54,13.12,5.61,6.44,12.97,11.51,21.25,14.76-3.6-4.76-5.9-9.12-8.26-13.94-3.42-6.97-5.57-13.61-7.22-21.19-3.85-17.72-3.38-35.52,2.65-52.76,4.59-13.14,10.32-25.47,18.24-37.31,1.94,1.96,1.76,4.16,1.88,6.38l1.77,33.99c.41,7.91,1.12,15.48,2.59,23.24,1.62,8.56,4.45,16.51,7.39,24.65,3.27,9.07,7.3,16.99,12.14,25.36,6.49,11.22,14.24,21.55,23.77,30.38l11.53,9.15,9.56,6.75,5.64,3.04c5.26,2.84,10.21,5.63,15.86,7.65l16.93,6.06c2.38.85,4.73.88,7.25,2.22-4.87,5.37-16.96,6.51-23.54,5.72l-20.88-2.51-13.3-3.02-15.03-5.61-11.64-6.15-14.81-9.12Z"/>
  <path class="st1" d="M284.27,418.8c-1.86-.97-5.03-.64-6.73-.51-.47.04-1.18-1.27-.88-1.58l1.26-1.33c8.58-9.02,25.98,2.13,33.57,13.41,2.52,3.74,3.83,7.87,4.98,12.29,1.54,5.89-.59,17.53-5.6,22.07-3.11,2.82-6.99,4.36-10.96,6.94,9.63,4.59,19.7,5.82,29.84,5.45,6.16-.22,11.53-1.9,16.73-5.17,7.85-4.95,14.69-11.01,20.26-18.59,3.32-4.52,5.32-9.64,7.89-14.94,2.17,2.73,2.97,6.15,3.72,9.59,1.24,5.74.96,10.75-1.35,16.58,8.17-4.12,14.94-11.39,16.69-19.75,1.92-9.2-4.45-20.08-12.94-24.63-7.17-3.84-15.97-3.6-23.1.02-8.23,4.17-10.08,17.47-5.87,21.17.79.7,1.76,1.4,2.22,2.44-2.87,2.02-6.25,3.53-9.83,3.16-8.41-.88-15.07-7.06-17.23-15.33-3.33-12.76-.26-26.6,8.03-36.85l5.56-5.53c11.12-8.97,30.34-14.04,43.46-9.2,6.33,2.34,12.54,5.18,17.83,9.47l6.97,6.92c9.05,10.65,16.65,30.19,14.13,43.99-2.59,14.15-6.17,18.86-14.62,29.51-14.54,18.32-36.97,27.07-59.6,31.44-15.02,2.9-35.28-.13-49.95-5.16-17.24-5.92-30.74-22.68-41.49-37.07-4.93-6.6-8.24-13.41-11.13-21.1-4.55-12.11-6.75-24.52-4.99-37.48l1.66-12.14,2.3-8.77c.55.13,1.5.92,1.52,1.24l2.38,21.13c.61,6.2,2.27,11.91,4.45,17.7s3.8,11.44,6.81,16.78c1.96,3.47,4.74,6.37,7.46,9.36,3.27,3.6,8.13,5.78,13.14,5.94,4.47.14,9.04-2.58,10.94-6.65,2.09-4.49,2.37-9.74,1.12-14.47s-4.3-8.1-8.62-10.35Z"/>
  <path class="st1" d="M439.82,345.42c-6.88-5.87-16.11-7.37-24.25-4.13-5.87,2.34-9.02,7.98-8.62,14.07.24,3.69,2.18,6.29,5.66,7.52,4.28,1.51,8.79,1.86,13.4.82.45-.1,1.68.39,1.94.83-3.92,7.12-18.94,9.81-25.78,7.53-11.31-3.77-19.59-17.34-19.79-29.6-.06-3.71.69-7.62,1.68-11.09,3.73-13.02,19.23-25.93,32.89-28.78,8.06-1.68,16.59-1.19,24.45,1.22,9.39,2.88,16.98,9.25,22.61,17.21,13.69,19.34,17.17,39.8,16.18,63.26-.67,15.82-4.59,30.85-11.69,44.9-.47.94-1.46,1.57-2.67,1.81l-3.06-16.23c-2.53-13.45-9.31-25.5-19.15-34.96l-4.11-3.52c-.38-.32-.89-1.52-.59-1.82.37-.36,1.26-.6,2.07-.76,6.2,1.91,11.55,4.69,17.3,8.69-1.81-13.96-7.24-27.38-18.47-36.96Z"/>
  <path class="st3" d="M469.75,266.19c9.12,20.82,19.91,26.31,25.16,36.34,7.12,13.58,8.82,26.12,7.09,41.29l-1.09,9.49c-.06.52-.62,1.54-1.05,1.55s-1.08-.62-1.42-1.12c-2.08-12.2-6.96-23.29-14.19-33.28-3.54-5.92-8.56-9.92-14.03-13.84s-10.6-5.97-16.77-7.84l-12.17-3.69c-14.48-4.39-26.49-15.72-32.47-29.52-6.02-13.9-3.25-27.54,3.86-40.29,7.51-13.47,21.9-19.5,37.13-17.09,4.45.7,8.31,3.19,12.13,5.53,7.97,4.88,14.5,11.15,19.03,19.35.9,1.64,1.69,4.34.61,5.76-2.12,2.8-6.11-5.69-15.58-6.6-5.05-.48-10,.68-14.64,2.31-5.42,1.91-8.89,5.87-9.88,11.51-.65,3.68-.62,7.11.88,10.79,2.17,5.34,5.55,10.15,9.38,14.54l12.18,10.2c.29-5.82.42-10.75,1.93-16.08l1.82-.78c.5-.21,1.83.86,2.09,1.47Z"/>
  <path class="st3" d="M463.78,483.35c-11.42,10.35-23.77,19-38.13,24.39-15.01,5.63-30.38,9.34-46.34,11.25-21.02,2.52-41.84-.12-61.86-6.37-.4-.12-1.1-1.15-1.01-1.55.1-.48,1.02-.98,1.56-.98l13.72.09,20.14-2.23,12.87-2.07c11.6-3.05,22.58-6.87,33.69-11.34,28.72-11.54,38.97-40.86,40.87-70.1.25-3.87-1.54-7.69-2.72-11.22-2.69-8.08-7.24-14.6-13.92-20.34,5.94-2.2,13.98,3.6,18.14,7.91,2.93,3.04,6,5.89,8.18,9.59,8.26,14.02,11.48,32.15,5.71,47.71l-5.04,13.59,21.56-10.94c5.22-2.65,9.37-6.39,13.68-10.4l6.13-4.73c.5-.38,2.04.43,2.17.97.88,3.51-12.43,19.79-17.03,24.39l-12.38,12.38Z"/>
  <path class="st3" d="M281.59,523.24c-6.83-3.18-12.21-7.16-18.28-11.78,1.46,5.09,4.15,9.12,7.25,12.93l4.52,5.55c4.29,5.27,9.41,9.81,16.12,11.73.67.19,1.48.93,1.49,1.46s-1.17,1.47-1.82,1.46c-9.83-.12-19.28-2.11-28.25-6.04-4.89-2.14-8.89-5.22-12.53-9.08-8.03-8.52-14.33-18.41-16.91-30.01-3.18-14.32-3.21-28.73-1.82-43.28l1.51-15.73c.05-.52.72-1.73,1.21-1.88.57-.17,1.88.63,2.17,1.17l8.44,16.05c5.26,10,11.26,19.25,19.28,27.22l12.05,11.96,8.62,8.16,11.04,7.74c13.29,9.32,44.42,21.48,61.37,23.86.09.51.17,1.84-.22,1.91l-2.12.39c-28.82,3.06-47.01-1.59-73.11-13.76Z"/>
  <path class="st3" d="M204.64,512.55c-9.12-9.67-15.27-23.72-19.82-36.48-15.59,2.43-31.04-1.32-43.76-10.28l-12.16-8.56c-.58-.41-1.03-2.56-.32-2.55,9.11.08,16.81,6.21,31.73,3.78,6.37-1.04,12.67-2.54,18.39-5.58,7.72-4.1,14.52-9.17,21.2-14.75l16.49-13.76c4.68-3.91,9.02-7.8,13.08-12.34.51-.57,1.18-1.13,1.71-1.21s.95,1.6.69,2.2l-6.2,14.01c-6.32,18.3-9.63,37.4-8.19,56.91.9,12.21,5.01,23.65,10.88,34.15,3.55,6.34,7.99,11.66,12.65,17.08.49.57,1.11,1.57.99,2.12-.73,3.46-12.44-2.9-17.28-6.51-7.31-5.44-13.8-11.56-20.09-18.23Z"/>
  <path class="st4" d="M489.35,381.03l-.93-17.41-3.51-18.8c0-.57,1.85-.42,2.32.04,5.46,5.38,8.97,11.9,11.54,19.1l4.49,15.76c2.17-6.04,4.36-12.29,4.77-18.84l.95-15.11-.18-12.93c.51-9.31.52-18.31-.3-27.46l.76-1.16c.17-.27.99.44,1.09.74l3.83,11.81,2.84,18.89,1.35,19.23c.63,9,.23,17.48-.94,26.37-1,7.59-2.3,14.64-5.14,21.79-8.1,20.39-19.68,36.97-41.14,45.4.99-4.97,3.46-8.57,5.34-12.65,3.88-8.39,6.29-16.94,8.62-25.94,2.45-9.47,4.34-18.67,4.23-28.83Z"/>
  <path class="st4" d="M216.37,412.29l-5.47,5.65c-5.28,5.45-11.07,10.19-18.08,13.1l-13.23,5.51c-3.69,1.54-7.45,2.56-11.47,2.93l-10.55.99c-3.17.3-6.47-.32-9.75-.67-4.67-.49-9.03-1.39-13.25-3.61-5.08-2.68-10.43-5.32-14.57-9.36l-12.16-11.86-10.07-16.4c.29-.57.71-1.29,1.05-1.26l1.54.15c3.75,3.53,8.02,5.69,12.93,7.27,10.54,4.59,21.2,7.69,32.36,10.4,7.34,1.78,14.27,2.93,21.85,3.12,4.63.12,9.05.17,13.59-.82l13.07-2.86,12.7-4.6c6.62-2.4,12.47-9.45,15.16-10.19.48-.13,1.41.61,1.78,1.27-2.14,3.77-4.41,8.07-7.45,11.21Z"/>
  <path class="st2" d="M525.25,342.42c1.8-18.32-1.94-36.39-8.55-53.43-2.53-6.52-6.12-12.43-10.69-17.57-2.35-2.65-7.23-4.32-9-2.4-1.88,2.04.69,7.27,2.72,11.06.46.86.44,2.37.18,3.73l-2.11-.87c-4.3-5.82-8.15-11.48-11.36-17.89-3.18-7.28-3.91-17.93,2.06-21.9s15.91,2.86,21.13,9.31c6.46,8,10.64,17.33,13.36,27.35,3.62,13.33,5.88,26.65,6.16,40.54l-1.04,26.06-1.79,11.85c-.26.29-1.44.57-1.69.3-.31-.34-.84-1.38-.78-1.94l1.39-14.2Z"/>
</svg>