<svg xmlns="http://www.w3.org/2000/svg" viewBox="0 0 1701.45 639.32">
  <path fill="none" stroke="#9c0808" stroke-linecap="round" stroke-linejoin="round" stroke-width="20" d="M1507.488 83.04c-72.921-12.16-142.254-16.09-229.76-23.688-87.505-7.6-140.045-8.045-241.92-10.194-136.538-2.88-323.53-.935-414.51 13.341-139.9 21.952-246.816 32.31-349.447 63.572-83.193 25.341-212.394 76.352-215.547 190.007-4.849 174.742 189.118 210.744 228.484 223.87 99.098 33.046 485.584 79.684 618.436 74.395 87.982-3.502 277.079-8.545 409.464-49.295 91.554-28.182 326.468-72.098 330.263-209.778 3.499-126.88-180.147-184.697-294.914-222.446-110.573-36.37-286.628-68.178-390.01-74.992L621.093 27.976v0"/>
</svg>
