<svg xmlns="http://www.w3.org/2000/svg" viewBox="0 0 1700 700">
  <path fill="none" stroke="#9c0808" stroke-linecap="round" stroke-linejoin="round" stroke-width="20" d="M1603.055 74.044c-568.843-39.957-434.262-29.535-562.67-36.59-122.534-6.734-139.789-3.775-268.397.551C647.629 42.19 629.71 46.95 549.54 61.626c-79.26 14.51-106.978 24.637-164.715 43.489-36.15 11.804-134.967 60.58-197.327 107.01C84.163 289.062 72.55 363.452 66.235 393.255 60.49 420.368 73.87 454.9 73.87 454.9l12.254 24.559s30.32 38.384 69.42 54.36c56.513 23.092 98.581 35.945 231.45 60.542 43.124 7.984 161.89 24.77 370.168 24.415 248.037-.421 626.096-24.077 789.709-116.89 74.845-42.459 102.09-111.522 104.256-163.667 2.218-53.421-13.296-128.403-109.925-178.843-95.996-50.11-188.262-59.25-188.262-59.25s-123.591-21.977-212.778-32.761C1053.53 56.89 954.966 49.483 954.966 49.483s-41.281-4.068-126.05-7.343c-117.72-4.548-197.786-8.927-265-9.834-51.267-.692-223.945 2.186-223.945 2.186"/>
</svg>
